<?xml version="1.0" encoding="UTF-8"?>
<!DOCTYPE svg PUBLIC "-//W3C//DTD SVG 1.1//EN" "http://www.w3.org/Graphics/SVG/1.1/DTD/svg11.dtd">
<svg xmlns="http://www.w3.org/2000/svg" version="1.1" width="1024px" height="1024px" style="shape-rendering:geometricPrecision; text-rendering:geometricPrecision; image-rendering:optimizeQuality; fill-rule:evenodd; clip-rule:evenodd" xmlns:xlink="http://www.w3.org/1999/xlink">
<g><path style="opacity:1" fill="#512bd4" d="M -0.5,-0.5 C 340.833,-0.5 682.167,-0.5 1023.5,-0.5C 1023.5,340.833 1023.5,682.167 1023.5,1023.5C 682.167,1023.5 340.833,1023.5 -0.5,1023.5C -0.5,682.167 -0.5,340.833 -0.5,-0.5 Z"/></g>
<g><path style="opacity:1" fill="#fefdfe" d="M 251.5,383.5 C 268.17,383.333 284.837,383.5 301.5,384C 345.062,452.567 388.229,521.4 431,590.5C 429.584,521.546 429.084,452.546 429.5,383.5C 443.5,383.5 457.5,383.5 471.5,383.5C 471.5,472.167 471.5,560.833 471.5,649.5C 455.486,649.833 439.486,649.499 423.5,648.5C 385.25,587.664 346.75,526.998 308,466.5C 302.147,457.46 296.814,448.127 292,438.5C 292.49,508.778 292.657,579.112 292.5,649.5C 278.833,649.5 265.167,649.5 251.5,649.5C 251.5,560.833 251.5,472.167 251.5,383.5 Z"/></g>
<g><path style="opacity:1" fill="#fefefe" d="M 660.5,533.5 C 630.833,533.5 601.167,533.5 571.5,533.5C 571.5,559.833 571.5,586.167 571.5,612.5C 605.833,612.5 640.167,612.5 674.5,612.5C 674.5,624.833 674.5,637.167 674.5,649.5C 625.833,649.5 577.167,649.5 528.5,649.5C 528.5,560.833 528.5,472.167 528.5,383.5C 575.167,383.5 621.833,383.5 668.5,383.5C 668.5,396.167 668.5,408.833 668.5,421.5C 636.167,421.5 603.833,421.5 571.5,421.5C 571.5,446.5 571.5,471.5 571.5,496.5C 601.167,496.5 630.833,496.5 660.5,496.5C 660.5,508.833 660.5,521.167 660.5,533.5 Z"/></g>
<g><path style="opacity:1" fill="#fefefe" d="M 881.5,420.5 C 856.5,420.5 831.5,420.5 806.5,420.5C 806.5,496.833 806.5,573.167 806.5,649.5C 792.167,649.5 777.833,649.5 763.5,649.5C 763.5,573.5 763.5,497.5 763.5,421.5C 738.833,421.5 714.167,421.5 689.5,421.5C 689.5,408.833 689.5,396.167 689.5,383.5C 753.5,383.5 817.5,383.5 881.5,383.5C 881.5,395.833 881.5,408.167 881.5,420.5 Z"/></g>
<g><path style="opacity:1" fill="#7f62df" d="M 881.5,420.5 C 857.006,421.498 832.339,421.831 807.5,421.5C 807.833,497.668 807.499,573.668 806.5,649.5C 806.5,573.167 806.5,496.833 806.5,420.5C 831.5,420.5 856.5,420.5 881.5,420.5 Z"/></g>
<g><path style="opacity:1" fill="#6442d8" d="M 660.5,533.5 C 631.338,534.498 602.005,534.831 572.5,534.5C 572.5,560.167 572.5,585.833 572.5,611.5C 606.671,611.168 640.671,611.502 674.5,612.5C 640.167,612.5 605.833,612.5 571.5,612.5C 571.5,586.167 571.5,559.833 571.5,533.5C 601.167,533.5 630.833,533.5 660.5,533.5 Z"/></g>
<g><path style="opacity:1" fill="#fdfcfe" d="M 175.5,603.5 C 194.452,601.953 205.452,610.453 208.5,629C 206.503,645.098 197.337,653.265 181,653.5C 161.928,650.739 153.928,639.739 157,620.5C 160.833,612.162 167,606.495 175.5,603.5 Z"/></g>
</svg>
